<svg width="18.000000" height="18.000000" viewBox="0 0 18 18" fill="none" xmlns="http://www.w3.org/2000/svg" xmlns:xlink="http://www.w3.org/1999/xlink">
	<desc>
			Created with Pixso.
	</desc>
	<defs/>
	<path id="Vector" d="M9 0C4.04 0 0 4.04 0 9C0 13.95 4.04 18 9 18C13.95 18 18 13.95 18 9C18 4.04 13.95 0 9 0ZM11.7 9.89L9 9.89C8.45 9.89 8.1 9.54 8.1 9L8.1 4.5C8.1 3.95 8.45 3.6 9 3.6C9.54 3.6 9.89 3.95 9.89 4.5L9.89 8.1L11.7 8.1C12.24 8.1 12.6 8.45 12.6 9C12.6 9.54 12.24 9.89 11.7 9.89Z" fill="#70737C" fill-opacity="1.000000" fill-rule="nonzero"/>
</svg>
