<svg width="16.000000" height="16.000000" viewBox="0 0 16 16" fill="none" xmlns="http://www.w3.org/2000/svg" xmlns:xlink="http://www.w3.org/1999/xlink">
	<desc>
			Created with Pixso.
	</desc>
	<defs/>
	<path id="Vector" d="M15.77 14.15L12.8 11.2C13.96 9.76 14.51 7.94 14.36 6.11C14.21 4.27 13.36 2.56 11.99 1.33C10.62 0.1 8.83 -0.55 6.99 -0.5C5.15 -0.45 3.4 0.3 2.1 1.6C0.8 2.91 0.05 4.66 0 6.5C-0.05 8.34 0.6 10.13 1.83 11.5C3.06 12.87 4.77 13.72 6.6 13.87C8.43 14.02 10.26 13.47 11.69 12.31L14.64 15.26C14.71 15.33 14.8 15.39 14.9 15.43C14.99 15.47 15.1 15.5 15.2 15.5C15.31 15.5 15.41 15.47 15.51 15.43C15.61 15.39 15.7 15.33 15.77 15.26C15.91 15.11 16 14.91 16 14.7C16 14.49 15.91 14.3 15.77 14.15ZM7.21 12.31C6.1 12.31 5.02 11.99 4.1 11.37C3.18 10.75 2.46 9.88 2.04 8.86C1.61 7.83 1.5 6.71 1.72 5.62C1.93 4.53 2.47 3.54 3.25 2.75C4.03 1.97 5.03 1.44 6.12 1.22C7.2 1 8.33 1.11 9.35 1.54C10.37 1.96 11.25 2.68 11.86 3.6C12.48 4.52 12.8 5.61 12.8 6.71C12.8 8.2 12.21 9.62 11.16 10.67C10.12 11.72 8.69 12.31 7.21 12.31Z" fill="#70737C" fill-opacity="1.000000" fill-rule="nonzero"/>
</svg>
